<?xml version="1.0" encoding="UTF-8"?><svg xmlns="http://www.w3.org/2000/svg" xmlns:xlink="http://www.w3.org/1999/xlink"><symbol viewBox="0 0 44 44" id="add" xmlns="http://www.w3.org/2000/svg"><g transform="rotate(45 10.96 26.46)"><path d="M15.5 0C6.952 0 0 6.953 0 15.5S6.953 31 15.5 31C24.045 31 31 24.047 31 15.5S24.046 0 15.5 0zm0 28.967c-7.426 0-13.467-6.041-13.467-13.467S8.073 2.033 15.499 2.033c7.427 0 13.468 6.041 13.468 13.467S22.926 28.967 15.5 28.967z"/><path d="M20.574 10.426a1.015 1.015 0 0 0-1.437 0L15.5 14.063l-3.637-3.637a1.015 1.015 0 1 0-1.437 1.437l3.636 3.637-3.637 3.637a1.017 1.017 0 0 0 1.437 1.437l3.638-3.637 3.637 3.637a1.013 1.013 0 0 0 1.437 0 1.016 1.016 0 0 0 0-1.437L16.937 15.5l3.637-3.637a1.016 1.016 0 0 0 0-1.437z"/></g></symbol><symbol viewBox="0 0 15 15" id="add-doc" xmlns="http://www.w3.org/2000/svg"><path d="M7.96 7.862l5.008.035a.82.82 0 0 0 .828-.828.849.849 0 0 0-.84-.84l-5.007-.036-.035-5.007a.848.848 0 0 0-.84-.84.82.82 0 0 0-.83.828l.036 5.007-5.007-.034a.82.82 0 0 0-.829.828c.003.461.38.837.84.84l5.007.035.035 5.008c.004.46.38.837.84.84a.82.82 0 0 0 .83-.829L7.96 7.862z"/></symbol><symbol viewBox="0 0 21 12" id="burger" xmlns="http://www.w3.org/2000/svg"><g><rect rx=".857"/><rect y="5.143" rx=".857"/><rect y="10.286" rx=".857"/></g></symbol><symbol viewBox="0 0 17 17" id="check" xmlns="http://www.w3.org/2000/svg"><path d="M8.5 0C3.813 0 0 3.813 0 8.5 0 13.187 3.813 17 8.5 17c4.687 0 8.5-3.813 8.5-8.5C17 3.813 13.187 0 8.5 0zm0 15.885c-4.072 0-7.385-3.313-7.385-7.385 0-4.072 3.313-7.385 7.385-7.385 4.072 0 7.385 3.313 7.385 7.385 0 4.072-3.313 7.385-7.385 7.385z"/><path d="M11.055 6.166L6.704 10.63l-1.76-1.804a.544.544 0 0 0-.782 0 .578.578 0 0 0 0 .803l2.15 2.205a.544.544 0 0 0 .783 0l.001-.002 4.742-4.863a.578.578 0 0 0 0-.803.543.543 0 0 0-.783 0z"/></symbol><symbol viewBox="0 0 12 12" id="clip" xmlns="http://www.w3.org/2000/svg"><g><path d="M11.167.812a2.915 2.915 0 0 0-4.036 0L5.113 2.775a.419.419 0 0 0 0 .604c.171.167.45.167.62 0l2.019-1.964a1.99 1.99 0 0 1 1.397-.56c.53 0 1.025.2 1.396.561.372.361.576.844.576 1.36 0 .514-.204.997-.576 1.358L7.908 6.7c-.771.75-2.024.75-2.795 0a.447.447 0 0 0-.62 0 .419.419 0 0 0 0 .604 2.886 2.886 0 0 0 2.017.813c.73 0 1.462-.272 2.018-.813l2.64-2.566A2.72 2.72 0 0 0 12 2.775a2.72 2.72 0 0 0-.833-1.963z"/><path d="M5.79 8.866l-1.66 1.693c-.36.368-.843.57-1.358.57-.515 0-.997-.202-1.359-.57a1.99 1.99 0 0 1 0-2.771l2.415-2.463c.361-.367.844-.57 1.358-.57.515 0 .998.203 1.358.57a.42.42 0 0 0 .604 0 .441.441 0 0 0 0-.615 2.74 2.74 0 0 0-3.924 0L.81 7.172a2.838 2.838 0 0 0-.81 2c0 .759.288 1.47.81 2.002.522.533 1.219.826 1.962.826.742 0 1.439-.293 1.961-.826l1.66-1.693a.441.441 0 0 0 0-.615.42.42 0 0 0-.603 0z"/></g></symbol><symbol viewBox="0 0 13 17" id="copy" xmlns="http://www.w3.org/2000/svg"><path d="M8.825 2.853H1.283C.575 2.853 0 3.427 0 4.135v10.822c0 .708.575 1.283 1.283 1.283h7.542c.708 0 1.283-.575 1.283-1.283V4.135a1.287 1.287 0 0 0-1.283-1.282zm.382 12.1a.386.386 0 0 1-.385.386H1.279a.386.386 0 0 1-.385-.385V4.135c0-.213.173-.385.385-.385h7.543c.212 0 .385.172.385.385v10.819z"/><path d="M11.71.015H4.166c-.708 0-1.283.575-1.283 1.282 0 .25.2.45.449.45s.448-.2.448-.45c0-.212.173-.385.386-.385h7.542c.213 0 .386.173.386.385V12.12a.386.386 0 0 1-.386.385c-.249 0-.448.2-.448.448 0 .25.199.449.448.449.708 0 1.283-.575 1.283-1.282V1.297c0-.707-.575-1.282-1.283-1.282z"/></symbol><symbol viewBox="0 0 24 24" id="delete" xmlns="http://www.w3.org/2000/svg"><path d="M12 0C5.382 0 0 5.383 0 12s5.383 12 12 12c6.616 0 12-5.383 12-12S18.616 0 12 0zm0 22.426C6.25 22.426 1.573 17.75 1.573 12c0-5.749 4.676-10.426 10.425-10.426 5.75 0 10.427 4.677 10.427 10.426 0 5.749-4.677 10.426-10.427 10.426z"/><path d="M16.022 7.978a.805.805 0 0 0-1.14 0L12 10.861 9.118 7.978a.805.805 0 1 0-1.14 1.14L10.861 12l-2.883 2.882a.806.806 0 0 0 1.139 1.14L12 13.139l2.883 2.883a.802.802 0 0 0 1.14 0 .805.805 0 0 0 0-1.14L13.138 12l2.883-2.883a.805.805 0 0 0 0-1.139z"/></symbol><symbol viewBox="0 0 34 46" id="doc" xmlns="http://www.w3.org/2000/svg"><path d="M33.903 11.609a1.06 1.06 0 0 0-.308-.718L23.168.465l-.001-.001a1.054 1.054 0 0 0-.748-.31H2.23C1 .155 0 1.155 0 2.385v40.758c0 1.229 1 2.228 2.229 2.228h29.447c1.229 0 2.229-1 2.229-2.228V11.64l-.002-.031zm-10.425-7.84l6.812 6.812h-6.365a.447.447 0 0 1-.447-.446V3.77zm8.31 39.373c0 .06-.05.11-.112.11H2.229a.112.112 0 0 1-.111-.11V2.384c0-.062.05-.112.111-.112h19.132v7.863a2.567 2.567 0 0 0 2.564 2.564h7.863v30.443z"/></symbol><symbol viewBox="0 0 14 18" id="docs" xmlns="http://www.w3.org/2000/svg"><path d="M12.805.061H3.269c-.632 0-1.145.514-1.145 1.145v.979H.817A.818.818 0 0 0 0 3.002v14.106c0 .45.367.817.817.817H11.01c.45 0 .817-.367.817-.817V15.8h.978c.632 0 1.146-.513 1.146-1.145V1.206c0-.631-.514-1.145-1.145-1.145zM11 17.101H.825V3.008h6.568v2.675c0 .515.418.934.933.934H11V17.1zM8.217 3.592l2.2 2.2h-2.09a.109.109 0 0 1-.11-.108V3.593zm4.588 11.384h-.98V6.206v-.01a.412.412 0 0 0-.12-.282L8.097 2.306v-.001a.41.41 0 0 0-.292-.12H2.949v-.979a.32.32 0 0 1 .32-.32h9.535a.32.32 0 0 1 .32.32v13.45h.001a.32.32 0 0 1-.32.32z"/></symbol><symbol viewBox="0 0 14 9" id="drop" xmlns="http://www.w3.org/2000/svg"><path d="M6.376 6.12l-2.03-2.357c-.185-.214-.037-.388.33-.386l4.028.012c.368 0 .517.177.332.392L7.043 6.118a.425.425 0 0 1-.667.001z"/></symbol><symbol viewBox="0 0 14 9" id="drops" xmlns="http://www.w3.org/2000/svg"><path d="M6.376 6.12l-2.03-2.357c-.185-.214-.037-.388.33-.386l4.028.012c.368 0 .517.177.332.392L7.043 6.118a.425.425 0 0 1-.667.001z"/></symbol><symbol viewBox="0 0 10 10" id="edit" xmlns="http://www.w3.org/2000/svg"><path d="M9.524.477a1.63 1.63 0 0 0-2.305 0L.693 7.003l-.008.01-.01.014a.185.185 0 0 0-.023.043l-.005.015-.003.005-.64 2.687a.17.17 0 0 0-.003.037L0 9.82c0 .02.005.04.012.06l.005.013c.009.02.02.038.036.053a.168.168 0 0 0 .06.04.183.183 0 0 0 .11.009l2.687-.64c.006-.001.009-.004.014-.006.007-.001.012-.004.018-.007a.192.192 0 0 0 .036-.022l.014-.01.004-.004 6.528-6.526a1.63 1.63 0 0 0 0-2.304zm-.256.255c.45.45.489 1.159.118 1.654L7.614.614a1.27 1.27 0 0 1 1.654.118zM8.372 3.42L6.58 1.628l.256-.255 1.791 1.791-.255.256zM.898 9.102a.181.181 0 0 0-.256 0l-.137.137.462-1.942.8-.089-.102.927c-.001.007.002.014.002.02 0 .008-.003.014-.002.02 0 .006.004.012.004.017l.01.03a.16.16 0 0 0 .035.056c.008.01.018.016.029.024l.024.015a.193.193 0 0 0 .038.012c.007.002.012.005.019.006l.02.002h.001l.02-.002.927-.102-.09.8-1.941.462.137-.137a.181.181 0 0 0 0-.256zm2.271-.991l4.05-4.05a.181.181 0 0 0-.255-.257l-4.05 4.05-.864.097.096-.865 4.05-4.05a.18.18 0 1 0-.255-.255L1.89 6.83l-.577.064 5.011-5.01 1.792 1.79-5.01 5.012.063-.576zm5.715-5.202L7.09 1.116 7.348.86 9.14 2.652l-.256.257z"/></symbol><symbol viewBox="0 0 13 12" id="folder" xmlns="http://www.w3.org/2000/svg"><path d="M12.655 3.63a1.203 1.203 0 0 0-.866-.357H1.197c-.33 0-.638.127-.865.357a1.144 1.144 0 0 0-.331.855l.313 5.759c.023.617.56 1.118 1.197 1.118h9.95a1.2 1.2 0 0 0 1.197-1.11l.328-5.776a1.14 1.14 0 0 0-.331-.846zm-.85 6.569a.348.348 0 0 1-.343.324h-9.95a.341.341 0 0 1-.343-.317L.855 4.448a.316.316 0 0 1 .092-.234.348.348 0 0 1 .25-.102H11.79c.098 0 .187.037.251.102a.311.311 0 0 1 .092.225l-.327 5.76zM11.196.897H6.527L5.4.177A.837.837 0 0 0 4.878 0H1.804C1.257 0 .812.414.812.923V3.25h.85V.923A.14.14 0 0 1 1.804.78H4.86A.36.36 0 0 0 4.89.8l1.26.806c.072.046.157.07.244.07h4.802a.14.14 0 0 1 .142.143v1.43h.85V1.82c0-.509-.445-.923-.992-.923z"/></symbol><symbol viewBox="0 0 17 13" id="glasses" xmlns="http://www.w3.org/2000/svg"><path d="M16.717 8.276l-2.247-6.88C14.153.391 13.047-.175 12.007.13a.45.45 0 0 0-.313.563.472.472 0 0 0 .584.302c.546-.16 1.124.138 1.29.665v.003l1.608 4.928a3.595 3.595 0 0 0-1.726-.436c-1.801 0-3.29 1.315-3.492 3H7.002c-.23-1.658-1.705-2.94-3.486-2.94-.63 0-1.22.161-1.732.44l1.628-4.992v-.003c.167-.527.745-.826 1.29-.665a.47.47 0 0 0 .585-.302.449.449 0 0 0-.313-.563C3.934-.174 2.83.392 2.51 1.395L.271 8.283a.332.332 0 0 0-.014.057A3.296 3.296 0 0 0 0 9.608C0 11.477 1.58 13 3.516 13c1.781 0 3.256-1.282 3.486-2.939h2.974c.257 1.627 1.718 2.879 3.474 2.879 1.938 0 3.517-1.524 3.517-3.392a3.234 3.234 0 0 0-.25-1.272zM3.52 12.094c-1.423 0-2.577-1.114-2.577-2.486S2.097 7.122 3.52 7.122s2.577 1.114 2.577 2.486-1.158 2.486-2.577 2.486zm9.934-.06c-1.423 0-2.577-1.114-2.577-2.486s1.158-2.486 2.577-2.486 2.577 1.114 2.577 2.486-1.154 2.486-2.577 2.486z"/></symbol><symbol viewBox="0 0 14 14" id="lang" xmlns="http://www.w3.org/2000/svg"><path d="M13.563 9.271c.252-.719.389-1.491.389-2.295a6.944 6.944 0 0 0-.41-2.358C12.571 1.928 9.994 0 6.975 0 3.956 0 1.379 1.928.41 4.618A6.944 6.944 0 0 0 0 6.976a6.946 6.946 0 0 0 .41 2.358c.97 2.69 3.546 4.618 6.566 4.618s5.597-1.928 6.565-4.618a.464.464 0 0 0 .022-.063zm-6.587 3.681c-.266 0-.694-.48-1.052-1.555a10.951 10.951 0 0 1-.412-1.762H8.44c-.1.648-.24 1.244-.412 1.762-.358 1.074-.787 1.555-1.052 1.555zM5.39 8.635a18.458 18.458 0 0 1 0-3.318h3.17a18.577 18.577 0 0 1 0 3.318h-3.17zM1 6.975c0-.574.082-1.13.234-1.658h3.154a19.42 19.42 0 0 0 0 3.318H1.234A5.952 5.952 0 0 1 1 6.975zM6.976 1c.266 0 .694.48 1.052 1.555.173.518.311 1.114.412 1.762H5.512c.1-.648.239-1.244.412-1.762C6.282 1.481 6.71 1 6.976 1zm2.588 4.317h3.153a5.959 5.959 0 0 1 0 3.318H9.564a19.423 19.423 0 0 0 0-3.318zm2.763-1H9.45c-.178-1.226-.483-2.326-.912-3.11a6.002 6.002 0 0 1 3.789 3.11zm-6.914-3.11c-.428.784-.733 1.884-.91 3.11H1.624a6.002 6.002 0 0 1 3.788-3.11zM1.625 9.636h2.877c.178 1.226.483 2.327.911 3.11a6.003 6.003 0 0 1-3.788-3.11zm6.913 3.11c.428-.783.733-1.884.912-3.11h2.877a6.003 6.003 0 0 1-3.789 3.11z"/></symbol><symbol viewBox="0 0 20 18" id="list" xmlns="http://www.w3.org/2000/svg"><path d="M1.984 4.149c1.096 0 1.984-.932 1.984-2.072C3.968.937 3.08.002 1.984.002S0 .934 0 2.073C0 3.213.892 4.15 1.984 4.15zm0-3.184c.587 0 1.062.5 1.062 1.108 0 .61-.479 1.109-1.062 1.109-.583 0-1.062-.5-1.062-1.109S1.401.965 1.984.965zM1.984 10.548c1.096 0 1.984-.932 1.984-2.072 0-1.14-.888-2.071-1.984-2.071S0 7.333 0 8.476c0 1.144.892 2.072 1.984 2.072zm0-3.18c.587 0 1.062.5 1.062 1.108 0 .61-.479 1.109-1.062 1.109-.583 0-1.062-.495-1.062-1.109 0-.613.479-1.108 1.062-1.108zM1.984 16.95c1.096 0 1.984-.93 1.984-2.07 0-1.144-.892-2.072-1.984-2.072S0 13.74 0 14.879c0 1.14.892 2.072 1.984 2.072zm0-3.183c.587 0 1.062.5 1.062 1.108 0 .614-.479 1.109-1.062 1.109-.583 0-1.062-.5-1.062-1.109s.479-1.108 1.062-1.108zM7.49 2.833h12.02c.27 0 .49-.21.49-.472a.481.481 0 0 0-.49-.472H7.49A.481.481 0 0 0 7 2.36c0 .261.22.472.49.472zM7.49 8.5h12.02c.27 0 .49-.211.49-.472a.481.481 0 0 0-.49-.472H7.49a.481.481 0 0 0-.49.472c0 .26.22.472.49.472zM7.49 15.111h12.02c.27 0 .49-.211.49-.472a.481.481 0 0 0-.49-.472H7.49a.481.481 0 0 0-.49.472c0 .261.22.472.49.472z"/></symbol><symbol viewBox="0 0 19 23" id="logo" xmlns="http://www.w3.org/2000/svg"><path d="M3.601 20.244V3.856h10.121c-1.327-1.171-3.04-1.88-4.902-1.88H1.8v18.268h1.801zm3.601 0V7.617h8.903a8.092 8.092 0 0 0-.822-1.88H5.402v14.507h1.8zm6.946-2.286h-2.895v-1.88h4.257a8.115 8.115 0 0 0 .702-1.88h-4.959v-1.88h5.182V9.927c0-.144-.003-.288-.01-.43H9.001V20.24c1.997-.05 3.81-.913 5.146-2.283zM0 .096h8.82c2.59 0 4.945 1.106 6.65 2.887a10.026 10.026 0 0 1 2.766 6.945v2.364c0 2.704-1.06 5.163-2.765 6.944-1.706 1.782-4.06 2.888-6.65 2.888H0V.096z"/></symbol><symbol viewBox="0 0 10 10" id="minus" xmlns="http://www.w3.org/2000/svg"><path d="M5.538 5.538h3.53a.588.588 0 1 0 0-1.177H.831a.588.588 0 1 0 0 1.177H5.538z"/></symbol><symbol viewBox="0 0 16 4" id="more" xmlns="http://www.w3.org/2000/svg"><g transform="rotate(90 8 8)"><circle cx="2.5" cy="1.5" r="1.5"/><circle cx="2.5" cy="7.5" r="1.5"/><circle cx="2.5" cy="13.5" r="1.5"/></g></symbol><symbol viewBox="0 0 12 15" id="pin" xmlns="http://www.w3.org/2000/svg"><g><path d="M5.997 0C2.69 0 0 2.698 0 6.013a5.934 5.934 0 0 0 .147 1.33c.091.405.226.805.402 1.185.646 1.525 2.067 3.868 5.184 6.378a.425.425 0 0 0 .534 0c3.114-2.51 4.538-4.853 5.184-6.378a5.865 5.865 0 0 0 .442-1.387c.07-.37.107-.751.107-1.128C11.994 2.698 9.303 0 5.997 0zm5.056 6.994l-.003.018a7.18 7.18 0 0 1-.028.136v.006a4.994 4.994 0 0 1-.349 1.025c-.003.003-.003.01-.006.013-.586 1.393-1.872 3.519-4.67 5.836-2.798-2.317-4.084-4.443-4.67-5.836-.003-.003-.003-.01-.007-.013a5.324 5.324 0 0 1-.348-1.025v-.006c-.019-.073-.025-.12-.028-.136 0-.006-.003-.012-.003-.021a5.141 5.141 0 0 1-.094-.982c0-2.845 2.311-5.163 5.15-5.163 2.838 0 5.15 2.318 5.15 5.163 0 .334-.031.664-.094.985z"/><path d="M6 2C3.796 2 2 3.796 2 6c0 2.204 1.796 4 4 4 2.204 0 4-1.796 4-4 0-2.204-1.796-4-4-4zm0 7.11A3.114 3.114 0 0 1 2.89 6 3.116 3.116 0 0 1 6 2.89 3.116 3.116 0 0 1 9.11 6 3.114 3.114 0 0 1 6 9.11z"/></g></symbol><symbol viewBox="0 0 10 10" id="plus" xmlns="http://www.w3.org/2000/svg"><path d="M5.538 5.538h3.53a.588.588 0 1 0 0-1.177h-3.53V.831A.588.588 0 1 0 4.36.833v3.53H.832a.588.588 0 1 0 0 1.176h3.53v3.53a.588.588 0 1 0 1.176 0v-3.53z"/></symbol><symbol viewBox="0 0 512 512" id="qrcode" xmlns="http://www.w3.org/2000/svg"><rect x="69.587" y="69.587"/><path d="M339.432 0v69.589h-52.029v33.391h52.029v36.197h-52.029v33.391h121.382v50.989h33.391v-50.989H512V0H339.432zm139.177 139.177H372.823V33.391h105.786v105.786z"/><rect x="409.021" y="69.587"/><rect x="69.587" y="409.021"/><rect x="409.021" y="409.021"/><path d="M172.568 69.589V0H0v172.568h69.589v50.989h33.391v-50.989h69.589V102.98h50.989V69.589h-50.99zm-33.391 69.588H33.391V33.391h105.786v105.786z"/><rect x="223.555" y="306.109"/><path d="M206.861 356.127v52.893h-34.293v-69.589H102.98V305.66h52.893v-33.391H69.589v67.162H0V512h172.568v-69.589h67.684v-86.284h-33.391zm-67.684 122.482H33.391V372.823h105.786v105.786zM442.177 339.432v-50.466h-33.391v50.466h-69.354v69.589h-68.725v86.284h33.391v-52.893h35.334V512H512V339.432h-69.823zm36.432 139.177H372.823V372.823h105.786v105.786zM206.861 155.873v50.988h-50.988v33.392h84.38v-84.38zM270.707 199.34v84.38h33.391v-50.988h50.988V199.34z"/></symbol><symbol viewBox="0 0 4 6" id="right-arrow" xmlns="http://www.w3.org/2000/svg"><path d="M.064 5.939a.207.207 0 0 1 0-.3l2.743-2.636L.064.362a.207.207 0 0 1 0-.3.226.226 0 0 1 .312 0l2.893 2.786a.204.204 0 0 1 .064.15.212.212 0 0 1-.064.15L.376 5.933a.222.222 0 0 1-.312.006z"/></symbol><symbol viewBox="0 0 14 14" id="search" xmlns="http://www.w3.org/2000/svg"><path d="M13.828 13.006L10.463 9.64A5.902 5.902 0 0 0 5.9 0a5.9 5.9 0 1 0 3.737 10.466l3.366 3.362a.583.583 0 1 0 .825-.822zM5.9 10.626A4.732 4.732 0 0 1 1.17 5.9 4.734 4.734 0 0 1 5.9 1.17 4.736 4.736 0 0 1 10.629 5.9a4.734 4.734 0 0 1-4.73 4.726z"/></symbol><symbol viewBox="0 0 11 9" id="share" xmlns="http://www.w3.org/2000/svg"><path d="M11 4.439L6.342 0v2.956C2.84 2.956 0 5.662 0 9c1.287-2.235 3.84-3.388 6.342-3.092v2.97L11 4.437"/></symbol><symbol viewBox="0 0 37.8 43.2" id="sidebar" xmlns="http://www.w3.org/2000/svg"><style>.azst0{fill:#231815}</style><path class="azst0" d="M35.1 5.4h-2.7V2.7c0-1.5-1.2-2.7-2.7-2.7h-27C1.2 0 0 1.2 0 2.7v32.4c0 1.5 1.2 2.7 2.7 2.7h2.7v2.7c0 1.5 1.2 2.7 2.7 2.7h27c1.5 0 2.7-1.2 2.7-2.7V8.1c0-1.5-1.2-2.7-2.7-2.7zM2.7 35.1V2.7h27v32.4h-27zm32.4 5.4h-27v-2.7h21.6c1.5 0 2.7-1.2 2.7-2.7v-27h2.7v32.4z"/><path class="azst0" d="M25.7 8.1H12.2c-.7 0-1.4.6-1.4 1.3 0 .7.6 1.4 1.4 1.4h13.5c.7 0 1.4-.6 1.4-1.4-.1-.7-.7-1.3-1.4-1.3zM25.7 16.2H6.8c-.7 0-1.4.6-1.4 1.3 0 .7.6 1.4 1.4 1.4h18.9c.7 0 1.4-.6 1.4-1.4-.1-.7-.7-1.3-1.4-1.3zM25.7 21.6H6.8c-.7 0-1.4.6-1.4 1.4 0 .7.6 1.4 1.4 1.4h18.9c.7 0 1.4-.6 1.4-1.4-.1-.8-.7-1.4-1.4-1.4zM25.7 27H6.8c-.7 0-1.4.6-1.4 1.3 0 .7.6 1.4 1.4 1.4h18.9c.7 0 1.4-.6 1.4-1.4-.1-.7-.7-1.3-1.4-1.3z"/></symbol><symbol viewBox="0 0 14 14" id="templates" xmlns="http://www.w3.org/2000/svg"><path d="M10.357 14H.237A.237.237 0 0 1 0 13.763V.237C0 .107.106.001.237.001H8.15c.062 0 .122.025.167.069l2.206 2.203c.044.045.07.105.07.168v3.34a.237.237 0 1 1-.474 0V2.539L8.053.474H.473v13.053h9.647V7.32a.237.237 0 1 1 .473 0v6.443c0 .131-.106.237-.236.237"/><path d="M8.387 2.205h1.397L8.387.808v1.397zm1.968.473H8.151a.237.237 0 0 1-.237-.237V.237a.237.237 0 0 1 .404-.168l2.205 2.205a.237.237 0 0 1-.168.404z"/><g transform="translate(5.742 2.871)"><path d="M.762 7.16l-.155.512.512-.156.282-.507-.13-.132-.509.283zM.251 8.265a.237.237 0 0 1-.227-.306L.338 6.93a.237.237 0 0 1 .112-.138l.747-.415a.237.237 0 0 1 .283.04l.383.383c.075.075.091.19.04.282l-.416.748a.237.237 0 0 1-.138.111L.32 8.254a.236.236 0 0 1-.069.01z"/><path d="M1.497 6.435l.347.346.92-.75 1.68-1.746L7.712.887l-.32-.32L4.778 3.08l-2.53 2.435-.75.92zm.331.902a.236.236 0 0 1-.167-.07l-.65-.649a.237.237 0 0 1-.016-.317l.895-1.097a.24.24 0 0 1 .02-.02l2.54-2.445L7.192.103A.294.294 0 0 1 7.6.106l.573.573a.294.294 0 0 1 .003.408L4.785 4.613 3.095 6.37a.245.245 0 0 1-.02.02l-1.097.894a.237.237 0 0 1-.15.054z"/></g><path d="M11.764 6.093a.236.236 0 0 1-.167-.07l-.728-.728a.237.237 0 0 1 .334-.335l.729.729a.237.237 0 0 1-.168.404"/></symbol><symbol viewBox="0 0 17 16" id="text" xmlns="http://www.w3.org/2000/svg"><g transform="rotate(90 2 15)"><circle cx="1.875" cy="1.125" r="1.125"/><circle cx="1.875" cy="5.625" r="1.125"/><circle cx="1.875" cy="10.125" r="1.125"/></g><path d="M.609 15L6.279.447h1.974l4.586 11.28-1.953.42-.701-1.494H4.284L2.667 15H.609zM7.224 2.757L4.914 8.91h4.62l-2.31-6.153z"/></symbol><symbol viewBox="0 0 18 18" id="upload" xmlns="http://www.w3.org/2000/svg"><g transform="matrix(1 0 0 -1 0 18)"><path d="M8.984 18c4.954 0 8.985-4.03 8.985-8.984S13.939.03 8.984.03C4.031.031 0 4.061 0 9.016 0 13.969 4.03 18 8.984 18zm0-17.071c4.46 0 8.087 3.627 8.087 8.087 0 4.459-3.627 8.086-8.087 8.086-4.459 0-8.086-3.627-8.086-8.086 0-4.46 3.627-8.087 8.086-8.087z"/><path d="M6.458 8.31l1.694-1.82v6.953c0 .257.194.466.434.466s.434-.209.434-.466v-6.95l1.694 1.82a.415.415 0 0 0 .614 0 .487.487 0 0 0 0-.655L8.896 5.046a.41.41 0 0 0-.61 0L5.854 7.658a.487.487 0 0 0 0 .655.404.404 0 0 0 .604-.003z"/></g></symbol><symbol viewBox="0 0 18 18" id="upload" xmlns="http://www.w3.org/2000/svg"><g transform="matrix(1 0 0 -1 0 18)"><path d="M8.984 18c4.954 0 8.985-4.03 8.985-8.984S13.939.03 8.984.03C4.031.031 0 4.061 0 9.016 0 13.969 4.03 18 8.984 18zm0-17.071c4.46 0 8.087 3.627 8.087 8.087 0 4.459-3.627 8.086-8.087 8.086-4.459 0-8.086-3.627-8.086-8.086 0-4.46 3.627-8.087 8.086-8.087z"/><path d="M6.458 8.31l1.694-1.82v6.953c0 .257.194.466.434.466s.434-.209.434-.466v-6.95l1.694 1.82a.415.415 0 0 0 .614 0 .487.487 0 0 0 0-.655L8.896 5.046a.41.41 0 0 0-.61 0L5.854 7.658a.487.487 0 0 0 0 .655.404.404 0 0 0 .604-.003z"/></g></symbol></svg>